# xmcd CD database file
#
# Track frame offsets:
#	150
#	17935
#	29545
#	44520
#	57977
#	80850
#	93892
#	111700
#	127115
#	150315
#
# Disc length: 2223 seconds
#
# Revision: 1
# Processed by: cddbd v1.5.1PL0 Copyright (c) Steve Scherf et al.
# Submitted via: CDex 1.51
#
DISCID=8a08ad0a
DTITLE=SAKANA - my dear
DYEAR=1999
DGENRE=Pop-Folk
TTITLE0=Ogstell
TTITLE1=Efilym
TTITLE2=Sardine After Moon
TTITLE3=Tsumeato
TTITLE4=Happy Tuesday
TTITLE5=Maria Mari
TTITLE6=My Dear
TTITLE7=Little Swallow
TTITLE8=Erehwon
TTITLE9=Chocolate
EXTD=YEAR: 1999
EXTT0=
EXTT1=
EXTT2=
EXTT3=
EXTT4=
EXTT5=
EXTT6=
EXTT7=
EXTT8=
EXTT9=
PLAYORDER=
